<?xml version="1.0" encoding="utf-8"?>
<!-- Generator: Adobe Illustrator 16.0.0, SVG Export Plug-In . SVG Version: 6.00 Build 0)  -->
<!DOCTYPE svg PUBLIC "-//W3C//DTD SVG 1.1//EN" "http://www.w3.org/Graphics/SVG/1.1/DTD/svg11.dtd">
<svg version="1.1" id="Capa_1" xmlns="http://www.w3.org/2000/svg" xmlns:xlink="http://www.w3.org/1999/xlink" x="0px" y="0px"
	 width="300px" height="243.687px" viewBox="50 28.157 300 243.687" enable-background="new 50 28.157 300 243.687"
	 xml:space="preserve">
<g>
	<g>
		<path d="M350,56.989c-11.041,4.893-22.889,8.211-35.338,9.692c12.711-7.611,22.44-19.684,27.052-34.025
			c-11.923,7.049-25.083,12.167-39.105,14.941c-11.229-11.979-27.201-19.44-44.917-19.44c-33.986,0-61.544,27.558-61.544,61.526
			c0,4.817,0.544,9.523,1.594,14.022c-51.14-2.569-96.488-27.07-126.838-64.301c-5.305,9.074-8.323,19.646-8.323,30.932
			c0,21.353,10.873,40.192,27.37,51.215c-10.086-0.337-19.572-3.111-27.876-7.723v0.769c0,29.807,21.221,54.683,49.359,60.345
			c-5.155,1.388-10.591,2.155-16.215,2.155c-3.974,0-7.817-0.393-11.585-1.143c7.836,24.463,30.557,42.254,57.477,42.742
			c-21.053,16.496-47.598,26.301-76.43,26.301c-4.967,0-9.86-0.3-14.678-0.844c27.239,17.49,59.577,27.689,94.333,27.689
			c113.21,0,175.092-93.771,175.092-175.093l-0.206-7.967C331.31,80.16,341.77,69.325,350,56.989z"/>
	</g>
</g>
</svg>
